<mxfile host="app.diagrams.net" modified="2023-01-08T17:04:33.220Z" agent="5.0 (Windows NT 10.0; Win64; x64) AppleWebKit/537.36 (KHTML, like Gecko) Chrome/108.0.0.0 Safari/537.36 Edg/108.0.1462.76" etag="TfPagCpcGayaEHZ3aaDl" version="20.8.1" type="github" pages="2">
  <diagram id="IkGzw-WXtK7ThrJWc4Jl" name="Registration Workflow">
    <mxGraphModel dx="1044" dy="1091" grid="1" gridSize="10" guides="1" tooltips="1" connect="1" arrows="1" fold="1" page="0" pageScale="1" pageWidth="1100" pageHeight="850" math="0" shadow="0">
      <root>
        <mxCell id="0" />
        <mxCell id="1" parent="0" />
        <mxCell id="MfB2ehJxBQ1HAs2-n-3X-41" style="edgeStyle=orthogonalEdgeStyle;rounded=0;orthogonalLoop=1;jettySize=auto;html=1;fontFamily=Montserrat;fontSource=https%3A%2F%2Ffonts.googleapis.com%2Fcss%3Ffamily%3DMontserrat;fontSize=14;fontColor=#FFFFFF;" parent="1" source="MfB2ehJxBQ1HAs2-n-3X-40" edge="1">
          <mxGeometry relative="1" as="geometry">
            <mxPoint x="690" y="437" as="targetPoint" />
          </mxGeometry>
        </mxCell>
        <mxCell id="MfB2ehJxBQ1HAs2-n-3X-40" value="" style="aspect=fixed;perimeter=ellipsePerimeter;html=1;align=center;shadow=0;dashed=0;spacingTop=3;image;image=img/lib/active_directory/mac_client.svg;rounded=1;fontFamily=Montserrat;fontSource=https%3A%2F%2Ffonts.googleapis.com%2Fcss%3Ffamily%3DMontserrat;fontSize=14;fontColor=#FFFFFF;" parent="1" vertex="1">
          <mxGeometry x="400" y="400" width="70" height="74.47" as="geometry" />
        </mxCell>
        <mxCell id="MfB2ehJxBQ1HAs2-n-3X-42" value="send registration request" style="text;strokeColor=none;align=center;fillColor=none;html=1;verticalAlign=middle;whiteSpace=wrap;rounded=0;fontFamily=Montserrat;fontSource=https%3A%2F%2Ffonts.googleapis.com%2Fcss%3Ffamily%3DMontserrat;fontSize=14;fontColor=#FFFFFF;fontStyle=2" parent="1" vertex="1">
          <mxGeometry x="490" y="400" width="180" height="30" as="geometry" />
        </mxCell>
        <mxCell id="MfB2ehJxBQ1HAs2-n-3X-43" value="Client" style="text;strokeColor=none;align=center;fillColor=none;html=1;verticalAlign=middle;whiteSpace=wrap;rounded=0;fontFamily=Montserrat;fontSource=https%3A%2F%2Ffonts.googleapis.com%2Fcss%3Ffamily%3DMontserrat;fontSize=14;fontColor=#66B2FF;fontStyle=1" parent="1" vertex="1">
          <mxGeometry x="405" y="474.47" width="60" height="30" as="geometry" />
        </mxCell>
        <mxCell id="MfB2ehJxBQ1HAs2-n-3X-77" style="edgeStyle=orthogonalEdgeStyle;rounded=0;orthogonalLoop=1;jettySize=auto;html=1;fontFamily=Montserrat;fontSource=https%3A%2F%2Ffonts.googleapis.com%2Fcss%3Ffamily%3DMontserrat;fontSize=14;fontColor=#66B2FF;" parent="1" source="MfB2ehJxBQ1HAs2-n-3X-44" edge="1">
          <mxGeometry relative="1" as="geometry">
            <mxPoint x="1180" y="437.24" as="targetPoint" />
          </mxGeometry>
        </mxCell>
        <mxCell id="pc8t0I94KmSoWtpbnnTX-1" style="edgeStyle=orthogonalEdgeStyle;rounded=0;orthogonalLoop=1;jettySize=auto;html=1;" edge="1" parent="1" source="MfB2ehJxBQ1HAs2-n-3X-44">
          <mxGeometry relative="1" as="geometry">
            <mxPoint x="745" y="220" as="targetPoint" />
          </mxGeometry>
        </mxCell>
        <mxCell id="MfB2ehJxBQ1HAs2-n-3X-44" value="" style="sketch=0;points=[[0,0,0],[0.25,0,0],[0.5,0,0],[0.75,0,0],[1,0,0],[0,1,0],[0.25,1,0],[0.5,1,0],[0.75,1,0],[1,1,0],[0,0.25,0],[0,0.5,0],[0,0.75,0],[1,0.25,0],[1,0.5,0],[1,0.75,0]];outlineConnect=0;fontColor=#232F3E;gradientColor=#F78E04;gradientDirection=north;fillColor=#D05C17;strokeColor=#ffffff;dashed=0;verticalLabelPosition=bottom;verticalAlign=top;align=center;html=1;fontSize=12;fontStyle=0;aspect=fixed;shape=mxgraph.aws4.resourceIcon;resIcon=mxgraph.aws4.elemental;rounded=1;fontFamily=Montserrat;fontSource=https%3A%2F%2Ffonts.googleapis.com%2Fcss%3Ffamily%3DMontserrat;" parent="1" vertex="1">
          <mxGeometry x="710" y="402.24" width="70" height="70" as="geometry" />
        </mxCell>
        <mxCell id="MfB2ehJxBQ1HAs2-n-3X-65" style="edgeStyle=orthogonalEdgeStyle;rounded=0;orthogonalLoop=1;jettySize=auto;html=1;fontFamily=Montserrat;fontSource=https%3A%2F%2Ffonts.googleapis.com%2Fcss%3Ffamily%3DMontserrat;fontSize=14;fontColor=#FFFFFF;" parent="1" source="MfB2ehJxBQ1HAs2-n-3X-45" edge="1">
          <mxGeometry relative="1" as="geometry">
            <mxPoint x="745" y="710" as="targetPoint" />
          </mxGeometry>
        </mxCell>
        <mxCell id="MfB2ehJxBQ1HAs2-n-3X-45" value="&lt;p style=&quot;line-height: 130%;&quot;&gt;Authentication Service&lt;/p&gt;" style="text;strokeColor=none;align=center;fillColor=none;html=1;verticalAlign=middle;whiteSpace=wrap;rounded=0;fontFamily=Montserrat;fontSource=https%3A%2F%2Ffonts.googleapis.com%2Fcss%3Ffamily%3DMontserrat;fontSize=14;fontColor=#66B2FF;fontStyle=1" parent="1" vertex="1">
          <mxGeometry x="690" y="480" width="110" height="30" as="geometry" />
        </mxCell>
        <mxCell id="MfB2ehJxBQ1HAs2-n-3X-46" value="" style="shape=table;startSize=0;container=1;collapsible=0;childLayout=tableLayout;rounded=1;fontFamily=Montserrat;fontSource=https%3A%2F%2Ffonts.googleapis.com%2Fcss%3Ffamily%3DMontserrat;fontSize=14;fontColor=#66B2FF;" parent="1" vertex="1">
          <mxGeometry x="510" y="455" width="140" height="80" as="geometry" />
        </mxCell>
        <mxCell id="MfB2ehJxBQ1HAs2-n-3X-47" value="" style="shape=tableRow;horizontal=0;startSize=0;swimlaneHead=0;swimlaneBody=0;top=0;left=0;bottom=0;right=0;collapsible=0;dropTarget=0;fillColor=none;points=[[0,0.5],[1,0.5]];portConstraint=eastwest;rounded=1;fontFamily=Montserrat;fontSource=https%3A%2F%2Ffonts.googleapis.com%2Fcss%3Ffamily%3DMontserrat;fontSize=14;fontColor=#66B2FF;" parent="MfB2ehJxBQ1HAs2-n-3X-46" vertex="1">
          <mxGeometry width="140" height="40" as="geometry" />
        </mxCell>
        <mxCell id="MfB2ehJxBQ1HAs2-n-3X-48" value="&lt;font color=&quot;#ffffff&quot;&gt;Email Address&lt;/font&gt;" style="shape=partialRectangle;html=1;whiteSpace=wrap;connectable=0;overflow=hidden;fillColor=none;top=0;left=0;bottom=0;right=0;pointerEvents=1;rounded=1;fontFamily=Montserrat;fontSource=https%3A%2F%2Ffonts.googleapis.com%2Fcss%3Ffamily%3DMontserrat;fontSize=14;fontColor=#66B2FF;" parent="MfB2ehJxBQ1HAs2-n-3X-47" vertex="1">
          <mxGeometry width="140" height="40" as="geometry">
            <mxRectangle width="140" height="40" as="alternateBounds" />
          </mxGeometry>
        </mxCell>
        <mxCell id="MfB2ehJxBQ1HAs2-n-3X-49" value="" style="shape=tableRow;horizontal=0;startSize=0;swimlaneHead=0;swimlaneBody=0;top=0;left=0;bottom=0;right=0;collapsible=0;dropTarget=0;fillColor=none;points=[[0,0.5],[1,0.5]];portConstraint=eastwest;rounded=1;fontFamily=Montserrat;fontSource=https%3A%2F%2Ffonts.googleapis.com%2Fcss%3Ffamily%3DMontserrat;fontSize=14;fontColor=#66B2FF;" parent="MfB2ehJxBQ1HAs2-n-3X-46" vertex="1">
          <mxGeometry y="40" width="140" height="40" as="geometry" />
        </mxCell>
        <mxCell id="MfB2ehJxBQ1HAs2-n-3X-50" value="&lt;font color=&quot;#ffffff&quot;&gt;Full Name&lt;/font&gt;" style="shape=partialRectangle;html=1;whiteSpace=wrap;connectable=0;overflow=hidden;fillColor=none;top=0;left=0;bottom=0;right=0;pointerEvents=1;rounded=1;fontFamily=Montserrat;fontSource=https%3A%2F%2Ffonts.googleapis.com%2Fcss%3Ffamily%3DMontserrat;fontSize=14;fontColor=#66B2FF;" parent="MfB2ehJxBQ1HAs2-n-3X-49" vertex="1">
          <mxGeometry width="140" height="40" as="geometry">
            <mxRectangle width="140" height="40" as="alternateBounds" />
          </mxGeometry>
        </mxCell>
        <mxCell id="MfB2ehJxBQ1HAs2-n-3X-51" value="" style="shape=cylinder3;whiteSpace=wrap;html=1;boundedLbl=1;backgroundOutline=1;size=15;rounded=1;fontFamily=Montserrat;fontSource=https%3A%2F%2Ffonts.googleapis.com%2Fcss%3Ffamily%3DMontserrat;fontSize=14;fontColor=#FFFFFF;" parent="1" vertex="1">
          <mxGeometry x="715" y="80" width="60" height="80" as="geometry" />
        </mxCell>
        <mxCell id="MfB2ehJxBQ1HAs2-n-3X-52" value="&lt;p style=&quot;line-height: 130%;&quot;&gt;Authentication Database&lt;/p&gt;" style="text;strokeColor=none;align=center;fillColor=none;html=1;verticalAlign=middle;whiteSpace=wrap;rounded=0;fontFamily=Montserrat;fontSource=https%3A%2F%2Ffonts.googleapis.com%2Fcss%3Ffamily%3DMontserrat;fontSize=14;fontColor=#66B2FF;fontStyle=1" parent="1" vertex="1">
          <mxGeometry x="690" y="170" width="110" height="30" as="geometry" />
        </mxCell>
        <mxCell id="MfB2ehJxBQ1HAs2-n-3X-53" value="Schema" style="shape=table;startSize=30;container=1;collapsible=0;childLayout=tableLayout;rounded=1;fontFamily=Montserrat;fontSource=https%3A%2F%2Ffonts.googleapis.com%2Fcss%3Ffamily%3DMontserrat;fontSize=14;fontColor=#FFFFFF;" parent="1" vertex="1">
          <mxGeometry x="815" y="80" width="200" height="110" as="geometry" />
        </mxCell>
        <mxCell id="MfB2ehJxBQ1HAs2-n-3X-54" value="" style="shape=tableRow;horizontal=0;startSize=0;swimlaneHead=0;swimlaneBody=0;top=0;left=0;bottom=0;right=0;collapsible=0;dropTarget=0;fillColor=none;points=[[0,0.5],[1,0.5]];portConstraint=eastwest;rounded=1;fontFamily=Montserrat;fontSource=https%3A%2F%2Ffonts.googleapis.com%2Fcss%3Ffamily%3DMontserrat;fontSize=14;fontColor=#FFFFFF;" parent="MfB2ehJxBQ1HAs2-n-3X-53" vertex="1">
          <mxGeometry y="30" width="200" height="40" as="geometry" />
        </mxCell>
        <mxCell id="MfB2ehJxBQ1HAs2-n-3X-55" value="Email Address" style="shape=partialRectangle;html=1;whiteSpace=wrap;connectable=0;overflow=hidden;fillColor=none;top=0;left=0;bottom=0;right=0;pointerEvents=1;rounded=1;fontFamily=Montserrat;fontSource=https%3A%2F%2Ffonts.googleapis.com%2Fcss%3Ffamily%3DMontserrat;fontSize=14;fontColor=#FFFFFF;" parent="MfB2ehJxBQ1HAs2-n-3X-54" vertex="1">
          <mxGeometry width="124" height="40" as="geometry">
            <mxRectangle width="124" height="40" as="alternateBounds" />
          </mxGeometry>
        </mxCell>
        <mxCell id="MfB2ehJxBQ1HAs2-n-3X-56" value="String" style="shape=partialRectangle;html=1;whiteSpace=wrap;connectable=0;overflow=hidden;fillColor=none;top=0;left=0;bottom=0;right=0;pointerEvents=1;rounded=1;fontFamily=Montserrat;fontSource=https%3A%2F%2Ffonts.googleapis.com%2Fcss%3Ffamily%3DMontserrat;fontSize=14;fontColor=#FFFFFF;" parent="MfB2ehJxBQ1HAs2-n-3X-54" vertex="1">
          <mxGeometry x="124" width="76" height="40" as="geometry">
            <mxRectangle width="76" height="40" as="alternateBounds" />
          </mxGeometry>
        </mxCell>
        <mxCell id="MfB2ehJxBQ1HAs2-n-3X-57" value="" style="shape=tableRow;horizontal=0;startSize=0;swimlaneHead=0;swimlaneBody=0;top=0;left=0;bottom=0;right=0;collapsible=0;dropTarget=0;fillColor=none;points=[[0,0.5],[1,0.5]];portConstraint=eastwest;rounded=1;fontFamily=Montserrat;fontSource=https%3A%2F%2Ffonts.googleapis.com%2Fcss%3Ffamily%3DMontserrat;fontSize=14;fontColor=#FFFFFF;" parent="MfB2ehJxBQ1HAs2-n-3X-53" vertex="1">
          <mxGeometry y="70" width="200" height="40" as="geometry" />
        </mxCell>
        <mxCell id="MfB2ehJxBQ1HAs2-n-3X-58" value="Password" style="shape=partialRectangle;html=1;whiteSpace=wrap;connectable=0;overflow=hidden;fillColor=none;top=0;left=0;bottom=0;right=0;pointerEvents=1;rounded=1;fontFamily=Montserrat;fontSource=https%3A%2F%2Ffonts.googleapis.com%2Fcss%3Ffamily%3DMontserrat;fontSize=14;fontColor=#FFFFFF;" parent="MfB2ehJxBQ1HAs2-n-3X-57" vertex="1">
          <mxGeometry width="124" height="40" as="geometry">
            <mxRectangle width="124" height="40" as="alternateBounds" />
          </mxGeometry>
        </mxCell>
        <mxCell id="MfB2ehJxBQ1HAs2-n-3X-59" value="String" style="shape=partialRectangle;html=1;whiteSpace=wrap;connectable=0;overflow=hidden;fillColor=none;top=0;left=0;bottom=0;right=0;pointerEvents=1;rounded=1;fontFamily=Montserrat;fontSource=https%3A%2F%2Ffonts.googleapis.com%2Fcss%3Ffamily%3DMontserrat;fontSize=14;fontColor=#FFFFFF;" parent="MfB2ehJxBQ1HAs2-n-3X-57" vertex="1">
          <mxGeometry x="124" width="76" height="40" as="geometry">
            <mxRectangle width="76" height="40" as="alternateBounds" />
          </mxGeometry>
        </mxCell>
        <mxCell id="MfB2ehJxBQ1HAs2-n-3X-63" value="" style="sketch=0;aspect=fixed;html=1;points=[];align=center;image;fontSize=12;image=img/lib/mscae/Cache_Redis_Product.svg;rounded=1;fontFamily=Montserrat;fontSource=https%3A%2F%2Ffonts.googleapis.com%2Fcss%3Ffamily%3DMontserrat;fontColor=#FFFFFF;" parent="1" vertex="1">
          <mxGeometry x="707.5" y="720" width="75" height="63" as="geometry" />
        </mxCell>
        <mxCell id="MfB2ehJxBQ1HAs2-n-3X-64" value="&lt;p style=&quot;line-height: 130%;&quot;&gt;Redis Cache&lt;/p&gt;" style="text;strokeColor=none;align=center;fillColor=none;html=1;verticalAlign=middle;whiteSpace=wrap;rounded=0;fontFamily=Montserrat;fontSource=https%3A%2F%2Ffonts.googleapis.com%2Fcss%3Ffamily%3DMontserrat;fontSize=14;fontColor=#66B2FF;fontStyle=1" parent="1" vertex="1">
          <mxGeometry x="690" y="783" width="110" height="30" as="geometry" />
        </mxCell>
        <mxCell id="MfB2ehJxBQ1HAs2-n-3X-66" value="&lt;p style=&quot;line-height: 140%;&quot;&gt;store the details temporarily in Redis cache database&lt;/p&gt;" style="text;strokeColor=none;align=left;fillColor=none;html=1;verticalAlign=middle;whiteSpace=wrap;rounded=0;fontFamily=Montserrat;fontSource=https%3A%2F%2Ffonts.googleapis.com%2Fcss%3Ffamily%3DMontserrat;fontSize=14;fontColor=#FFFFFF;fontStyle=2" parent="1" vertex="1">
          <mxGeometry x="530" y="600" width="200" height="60" as="geometry" />
        </mxCell>
        <mxCell id="MfB2ehJxBQ1HAs2-n-3X-67" value="Schema" style="shape=table;startSize=30;container=1;collapsible=0;childLayout=tableLayout;rounded=1;fontFamily=Montserrat;fontSource=https%3A%2F%2Ffonts.googleapis.com%2Fcss%3Ffamily%3DMontserrat;fontSize=14;fontColor=#FFFFFF;" parent="1" vertex="1">
          <mxGeometry x="430" y="720" width="255" height="160" as="geometry" />
        </mxCell>
        <mxCell id="MfB2ehJxBQ1HAs2-n-3X-68" value="" style="shape=tableRow;horizontal=0;startSize=0;swimlaneHead=0;swimlaneBody=0;top=0;left=0;bottom=0;right=0;collapsible=0;dropTarget=0;fillColor=none;points=[[0,0.5],[1,0.5]];portConstraint=eastwest;rounded=1;fontFamily=Montserrat;fontSource=https%3A%2F%2Ffonts.googleapis.com%2Fcss%3Ffamily%3DMontserrat;fontSize=14;fontColor=#FFFFFF;" parent="MfB2ehJxBQ1HAs2-n-3X-67" vertex="1">
          <mxGeometry y="30" width="255" height="40" as="geometry" />
        </mxCell>
        <mxCell id="MfB2ehJxBQ1HAs2-n-3X-69" value="Email Address" style="shape=partialRectangle;html=1;whiteSpace=wrap;connectable=0;overflow=hidden;fillColor=none;top=0;left=0;bottom=0;right=0;pointerEvents=1;rounded=1;fontFamily=Montserrat;fontSource=https%3A%2F%2Ffonts.googleapis.com%2Fcss%3Ffamily%3DMontserrat;fontSize=14;fontColor=#FFFFFF;" parent="MfB2ehJxBQ1HAs2-n-3X-68" vertex="1">
          <mxGeometry width="125" height="40" as="geometry">
            <mxRectangle width="125" height="40" as="alternateBounds" />
          </mxGeometry>
        </mxCell>
        <mxCell id="MfB2ehJxBQ1HAs2-n-3X-70" value="String" style="shape=partialRectangle;html=1;whiteSpace=wrap;connectable=0;overflow=hidden;fillColor=none;top=0;left=0;bottom=0;right=0;pointerEvents=1;rounded=1;fontFamily=Montserrat;fontSource=https%3A%2F%2Ffonts.googleapis.com%2Fcss%3Ffamily%3DMontserrat;fontSize=14;fontColor=#FFFFFF;" parent="MfB2ehJxBQ1HAs2-n-3X-68" vertex="1">
          <mxGeometry x="125" width="130" height="40" as="geometry">
            <mxRectangle width="130" height="40" as="alternateBounds" />
          </mxGeometry>
        </mxCell>
        <mxCell id="MfB2ehJxBQ1HAs2-n-3X-71" value="" style="shape=tableRow;horizontal=0;startSize=0;swimlaneHead=0;swimlaneBody=0;top=0;left=0;bottom=0;right=0;collapsible=0;dropTarget=0;fillColor=none;points=[[0,0.5],[1,0.5]];portConstraint=eastwest;rounded=1;fontFamily=Montserrat;fontSource=https%3A%2F%2Ffonts.googleapis.com%2Fcss%3Ffamily%3DMontserrat;fontSize=14;fontColor=#FFFFFF;" parent="MfB2ehJxBQ1HAs2-n-3X-67" vertex="1">
          <mxGeometry y="70" width="255" height="40" as="geometry" />
        </mxCell>
        <mxCell id="MfB2ehJxBQ1HAs2-n-3X-72" value="Full Name" style="shape=partialRectangle;html=1;whiteSpace=wrap;connectable=0;overflow=hidden;fillColor=none;top=0;left=0;bottom=0;right=0;pointerEvents=1;rounded=1;fontFamily=Montserrat;fontSource=https%3A%2F%2Ffonts.googleapis.com%2Fcss%3Ffamily%3DMontserrat;fontSize=14;fontColor=#FFFFFF;" parent="MfB2ehJxBQ1HAs2-n-3X-71" vertex="1">
          <mxGeometry width="125" height="40" as="geometry">
            <mxRectangle width="125" height="40" as="alternateBounds" />
          </mxGeometry>
        </mxCell>
        <mxCell id="MfB2ehJxBQ1HAs2-n-3X-73" value="String" style="shape=partialRectangle;html=1;whiteSpace=wrap;connectable=0;overflow=hidden;fillColor=none;top=0;left=0;bottom=0;right=0;pointerEvents=1;rounded=1;fontFamily=Montserrat;fontSource=https%3A%2F%2Ffonts.googleapis.com%2Fcss%3Ffamily%3DMontserrat;fontSize=14;fontColor=#FFFFFF;" parent="MfB2ehJxBQ1HAs2-n-3X-71" vertex="1">
          <mxGeometry x="125" width="130" height="40" as="geometry">
            <mxRectangle width="130" height="40" as="alternateBounds" />
          </mxGeometry>
        </mxCell>
        <mxCell id="MfB2ehJxBQ1HAs2-n-3X-74" style="shape=tableRow;horizontal=0;startSize=0;swimlaneHead=0;swimlaneBody=0;top=0;left=0;bottom=0;right=0;collapsible=0;dropTarget=0;fillColor=none;points=[[0,0.5],[1,0.5]];portConstraint=eastwest;rounded=1;fontFamily=Montserrat;fontSource=https%3A%2F%2Ffonts.googleapis.com%2Fcss%3Ffamily%3DMontserrat;fontSize=14;fontColor=#FFFFFF;" parent="MfB2ehJxBQ1HAs2-n-3X-67" vertex="1">
          <mxGeometry y="110" width="255" height="50" as="geometry" />
        </mxCell>
        <mxCell id="MfB2ehJxBQ1HAs2-n-3X-75" value="Is Verified" style="shape=partialRectangle;html=1;whiteSpace=wrap;connectable=0;overflow=hidden;fillColor=none;top=0;left=0;bottom=0;right=0;pointerEvents=1;rounded=1;fontFamily=Montserrat;fontSource=https%3A%2F%2Ffonts.googleapis.com%2Fcss%3Ffamily%3DMontserrat;fontSize=14;fontColor=#FFFFFF;" parent="MfB2ehJxBQ1HAs2-n-3X-74" vertex="1">
          <mxGeometry width="125" height="50" as="geometry">
            <mxRectangle width="125" height="50" as="alternateBounds" />
          </mxGeometry>
        </mxCell>
        <mxCell id="MfB2ehJxBQ1HAs2-n-3X-76" value="Boolean&lt;br&gt;&lt;b&gt;&lt;font color=&quot;#66b2ff&quot;&gt;false by default&lt;/font&gt;&lt;/b&gt;" style="shape=partialRectangle;html=1;whiteSpace=wrap;connectable=0;overflow=hidden;fillColor=none;top=0;left=0;bottom=0;right=0;pointerEvents=1;rounded=1;fontFamily=Montserrat;fontSource=https%3A%2F%2Ffonts.googleapis.com%2Fcss%3Ffamily%3DMontserrat;fontSize=14;fontColor=#FFFFFF;" parent="MfB2ehJxBQ1HAs2-n-3X-74" vertex="1">
          <mxGeometry x="125" width="130" height="50" as="geometry">
            <mxRectangle width="130" height="50" as="alternateBounds" />
          </mxGeometry>
        </mxCell>
        <mxCell id="MfB2ehJxBQ1HAs2-n-3X-81" style="edgeStyle=orthogonalEdgeStyle;rounded=0;orthogonalLoop=1;jettySize=auto;html=1;fontFamily=Montserrat;fontSource=https%3A%2F%2Ffonts.googleapis.com%2Fcss%3Ffamily%3DMontserrat;fontSize=14;fontColor=#66B2FF;" parent="1" source="MfB2ehJxBQ1HAs2-n-3X-78" edge="1">
          <mxGeometry relative="1" as="geometry">
            <mxPoint x="1540" y="437.24" as="targetPoint" />
          </mxGeometry>
        </mxCell>
        <mxCell id="MfB2ehJxBQ1HAs2-n-3X-78" value="" style="sketch=0;points=[[0,0,0],[0.25,0,0],[0.5,0,0],[0.75,0,0],[1,0,0],[0,1,0],[0.25,1,0],[0.5,1,0],[0.75,1,0],[1,1,0],[0,0.25,0],[0,0.5,0],[0,0.75,0],[1,0.25,0],[1,0.5,0],[1,0.75,0]];outlineConnect=0;fontColor=#232F3E;gradientColor=#F78E04;gradientDirection=north;fillColor=#D05C17;strokeColor=#ffffff;dashed=0;verticalLabelPosition=bottom;verticalAlign=top;align=center;html=1;fontSize=12;fontStyle=0;aspect=fixed;shape=mxgraph.aws4.resourceIcon;resIcon=mxgraph.aws4.elemental;rounded=1;fontFamily=Montserrat;fontSource=https%3A%2F%2Ffonts.googleapis.com%2Fcss%3Ffamily%3DMontserrat;" parent="1" vertex="1">
          <mxGeometry x="1200" y="402.24" width="70" height="70" as="geometry" />
        </mxCell>
        <mxCell id="MfB2ehJxBQ1HAs2-n-3X-86" style="edgeStyle=orthogonalEdgeStyle;rounded=0;orthogonalLoop=1;jettySize=auto;html=1;fontFamily=Montserrat;fontSource=https%3A%2F%2Ffonts.googleapis.com%2Fcss%3Ffamily%3DMontserrat;fontSize=14;fontColor=#66B2FF;" parent="1" source="MfB2ehJxBQ1HAs2-n-3X-79" edge="1">
          <mxGeometry relative="1" as="geometry">
            <mxPoint x="1235" y="710" as="targetPoint" />
          </mxGeometry>
        </mxCell>
        <mxCell id="MfB2ehJxBQ1HAs2-n-3X-79" value="&lt;p style=&quot;line-height: 130%;&quot;&gt;OTP Service&lt;/p&gt;" style="text;strokeColor=none;align=center;fillColor=none;html=1;verticalAlign=middle;whiteSpace=wrap;rounded=0;fontFamily=Montserrat;fontSource=https%3A%2F%2Ffonts.googleapis.com%2Fcss%3Ffamily%3DMontserrat;fontSize=14;fontColor=#66B2FF;fontStyle=1" parent="1" vertex="1">
          <mxGeometry x="1180" y="474.47" width="110" height="30" as="geometry" />
        </mxCell>
        <mxCell id="MfB2ehJxBQ1HAs2-n-3X-80" value="&lt;p style=&quot;line-height: 140%;&quot;&gt;send request to the OTP service to send OTP to the email for verification&lt;/p&gt;" style="text;strokeColor=none;align=left;fillColor=none;html=1;verticalAlign=middle;whiteSpace=wrap;rounded=0;fontFamily=Montserrat;fontSource=https%3A%2F%2Ffonts.googleapis.com%2Fcss%3Ffamily%3DMontserrat;fontSize=14;fontColor=#FFFFFF;fontStyle=2" parent="1" vertex="1">
          <mxGeometry x="860" y="380" width="270" height="50" as="geometry" />
        </mxCell>
        <mxCell id="MfB2ehJxBQ1HAs2-n-3X-82" value="&lt;p style=&quot;line-height: 140%;&quot;&gt;generate and send OTP to the email for verification&lt;/p&gt;" style="text;strokeColor=none;align=left;fillColor=none;html=1;verticalAlign=middle;whiteSpace=wrap;rounded=0;fontFamily=Montserrat;fontSource=https%3A%2F%2Ffonts.googleapis.com%2Fcss%3Ffamily%3DMontserrat;fontSize=14;fontColor=#FFFFFF;fontStyle=2" parent="1" vertex="1">
          <mxGeometry x="1310" y="380" width="190" height="50" as="geometry" />
        </mxCell>
        <mxCell id="MfB2ehJxBQ1HAs2-n-3X-83" value="" style="aspect=fixed;html=1;points=[];align=center;image;fontSize=12;image=img/lib/azure2/integration/SendGrid_Accounts.svg;rounded=1;fontFamily=Montserrat;fontSource=https%3A%2F%2Ffonts.googleapis.com%2Fcss%3Ffamily%3DMontserrat;fontColor=#66B2FF;" parent="1" vertex="1">
          <mxGeometry x="1367.5" y="451.3" width="75" height="76.35" as="geometry" />
        </mxCell>
        <mxCell id="MfB2ehJxBQ1HAs2-n-3X-84" value="&lt;p style=&quot;line-height: 130%;&quot;&gt;SendGrid&lt;/p&gt;" style="text;strokeColor=none;align=center;fillColor=none;html=1;verticalAlign=middle;whiteSpace=wrap;rounded=0;fontFamily=Montserrat;fontSource=https%3A%2F%2Ffonts.googleapis.com%2Fcss%3Ffamily%3DMontserrat;fontSize=14;fontColor=#66B2FF;fontStyle=1" parent="1" vertex="1">
          <mxGeometry x="1350" y="535" width="110" height="30" as="geometry" />
        </mxCell>
        <mxCell id="MfB2ehJxBQ1HAs2-n-3X-85" value="" style="dashed=0;outlineConnect=0;html=1;align=center;labelPosition=center;verticalLabelPosition=bottom;verticalAlign=top;shape=mxgraph.weblogos.gmail;rounded=1;fontFamily=Montserrat;fontSource=https%3A%2F%2Ffonts.googleapis.com%2Fcss%3Ffamily%3DMontserrat;fontSize=14;fontColor=#66B2FF;" parent="1" vertex="1">
          <mxGeometry x="1560" y="412.24" width="75" height="50" as="geometry" />
        </mxCell>
        <mxCell id="MfB2ehJxBQ1HAs2-n-3X-87" value="" style="sketch=0;aspect=fixed;html=1;points=[];align=center;image;fontSize=12;image=img/lib/mscae/Cache_Redis_Product.svg;rounded=1;fontFamily=Montserrat;fontSource=https%3A%2F%2Ffonts.googleapis.com%2Fcss%3Ffamily%3DMontserrat;fontColor=#FFFFFF;" parent="1" vertex="1">
          <mxGeometry x="1197.5" y="720" width="75" height="63" as="geometry" />
        </mxCell>
        <mxCell id="MfB2ehJxBQ1HAs2-n-3X-88" value="&lt;p style=&quot;line-height: 130%;&quot;&gt;Redis Cache&lt;/p&gt;" style="text;strokeColor=none;align=center;fillColor=none;html=1;verticalAlign=middle;whiteSpace=wrap;rounded=0;fontFamily=Montserrat;fontSource=https%3A%2F%2Ffonts.googleapis.com%2Fcss%3Ffamily%3DMontserrat;fontSize=14;fontColor=#66B2FF;fontStyle=1" parent="1" vertex="1">
          <mxGeometry x="1180" y="783" width="110" height="30" as="geometry" />
        </mxCell>
        <mxCell id="MfB2ehJxBQ1HAs2-n-3X-89" value="Schema" style="shape=table;startSize=30;container=1;collapsible=0;childLayout=tableLayout;rounded=1;fontFamily=Montserrat;fontSource=https%3A%2F%2Ffonts.googleapis.com%2Fcss%3Ffamily%3DMontserrat;fontSize=14;fontColor=#FFFFFF;" parent="1" vertex="1">
          <mxGeometry x="1300" y="720" width="190" height="110" as="geometry" />
        </mxCell>
        <mxCell id="MfB2ehJxBQ1HAs2-n-3X-90" value="" style="shape=tableRow;horizontal=0;startSize=0;swimlaneHead=0;swimlaneBody=0;top=0;left=0;bottom=0;right=0;collapsible=0;dropTarget=0;fillColor=none;points=[[0,0.5],[1,0.5]];portConstraint=eastwest;rounded=1;fontFamily=Montserrat;fontSource=https%3A%2F%2Ffonts.googleapis.com%2Fcss%3Ffamily%3DMontserrat;fontSize=14;fontColor=#FFFFFF;" parent="MfB2ehJxBQ1HAs2-n-3X-89" vertex="1">
          <mxGeometry y="30" width="190" height="40" as="geometry" />
        </mxCell>
        <mxCell id="MfB2ehJxBQ1HAs2-n-3X-91" value="Email Address" style="shape=partialRectangle;html=1;whiteSpace=wrap;connectable=0;overflow=hidden;fillColor=none;top=0;left=0;bottom=0;right=0;pointerEvents=1;rounded=1;fontFamily=Montserrat;fontSource=https%3A%2F%2Ffonts.googleapis.com%2Fcss%3Ffamily%3DMontserrat;fontSize=14;fontColor=#FFFFFF;" parent="MfB2ehJxBQ1HAs2-n-3X-90" vertex="1">
          <mxGeometry width="124" height="40" as="geometry">
            <mxRectangle width="124" height="40" as="alternateBounds" />
          </mxGeometry>
        </mxCell>
        <mxCell id="MfB2ehJxBQ1HAs2-n-3X-92" value="String" style="shape=partialRectangle;html=1;whiteSpace=wrap;connectable=0;overflow=hidden;fillColor=none;top=0;left=0;bottom=0;right=0;pointerEvents=1;rounded=1;fontFamily=Montserrat;fontSource=https%3A%2F%2Ffonts.googleapis.com%2Fcss%3Ffamily%3DMontserrat;fontSize=14;fontColor=#FFFFFF;" parent="MfB2ehJxBQ1HAs2-n-3X-90" vertex="1">
          <mxGeometry x="124" width="66" height="40" as="geometry">
            <mxRectangle width="66" height="40" as="alternateBounds" />
          </mxGeometry>
        </mxCell>
        <mxCell id="MfB2ehJxBQ1HAs2-n-3X-93" value="" style="shape=tableRow;horizontal=0;startSize=0;swimlaneHead=0;swimlaneBody=0;top=0;left=0;bottom=0;right=0;collapsible=0;dropTarget=0;fillColor=none;points=[[0,0.5],[1,0.5]];portConstraint=eastwest;rounded=1;fontFamily=Montserrat;fontSource=https%3A%2F%2Ffonts.googleapis.com%2Fcss%3Ffamily%3DMontserrat;fontSize=14;fontColor=#FFFFFF;" parent="MfB2ehJxBQ1HAs2-n-3X-89" vertex="1">
          <mxGeometry y="70" width="190" height="40" as="geometry" />
        </mxCell>
        <mxCell id="MfB2ehJxBQ1HAs2-n-3X-94" value="OTP" style="shape=partialRectangle;html=1;whiteSpace=wrap;connectable=0;overflow=hidden;fillColor=none;top=0;left=0;bottom=0;right=0;pointerEvents=1;rounded=1;fontFamily=Montserrat;fontSource=https%3A%2F%2Ffonts.googleapis.com%2Fcss%3Ffamily%3DMontserrat;fontSize=14;fontColor=#FFFFFF;" parent="MfB2ehJxBQ1HAs2-n-3X-93" vertex="1">
          <mxGeometry width="124" height="40" as="geometry">
            <mxRectangle width="124" height="40" as="alternateBounds" />
          </mxGeometry>
        </mxCell>
        <mxCell id="MfB2ehJxBQ1HAs2-n-3X-95" value="String" style="shape=partialRectangle;html=1;whiteSpace=wrap;connectable=0;overflow=hidden;fillColor=none;top=0;left=0;bottom=0;right=0;pointerEvents=1;rounded=1;fontFamily=Montserrat;fontSource=https%3A%2F%2Ffonts.googleapis.com%2Fcss%3Ffamily%3DMontserrat;fontSize=14;fontColor=#FFFFFF;" parent="MfB2ehJxBQ1HAs2-n-3X-93" vertex="1">
          <mxGeometry x="124" width="66" height="40" as="geometry">
            <mxRectangle width="66" height="40" as="alternateBounds" />
          </mxGeometry>
        </mxCell>
        <mxCell id="MfB2ehJxBQ1HAs2-n-3X-99" value="&lt;p style=&quot;line-height: 140%;&quot;&gt;store the details temporarily in Redis cache database&lt;/p&gt;" style="text;strokeColor=none;align=left;fillColor=none;html=1;verticalAlign=middle;whiteSpace=wrap;rounded=0;fontFamily=Montserrat;fontSource=https%3A%2F%2Ffonts.googleapis.com%2Fcss%3Ffamily%3DMontserrat;fontSize=14;fontColor=#FFFFFF;fontStyle=2" parent="1" vertex="1">
          <mxGeometry x="1020" y="580" width="200" height="60" as="geometry" />
        </mxCell>
        <mxCell id="MfB2ehJxBQ1HAs2-n-3X-100" value="&lt;h2&gt;Starting the Registration Process&lt;/h2&gt;" style="text;strokeColor=none;align=center;fillColor=none;verticalAlign=middle;whiteSpace=wrap;rounded=0;fontFamily=Montserrat Black;fontSource=https%3A%2F%2Ffonts.googleapis.com%2Fcss%3Ffamily%3DMontserrat%2BBlack;fontSize=30;fontColor=#B266FF;fontStyle=0;labelBackgroundColor=none;html=1;" parent="1" vertex="1">
          <mxGeometry x="400" y="-40" width="820" height="60" as="geometry" />
        </mxCell>
        <mxCell id="MfB2ehJxBQ1HAs2-n-3X-101" value="&lt;h2&gt;Verifying the Email&lt;/h2&gt;" style="text;strokeColor=none;align=center;fillColor=none;verticalAlign=middle;whiteSpace=wrap;rounded=0;fontFamily=Montserrat Black;fontSource=https%3A%2F%2Ffonts.googleapis.com%2Fcss%3Ffamily%3DMontserrat%2BBlack;fontSize=30;fontColor=#B266FF;fontStyle=0;labelBackgroundColor=none;html=1;" parent="1" vertex="1">
          <mxGeometry x="1960" y="-40" width="490" height="60" as="geometry" />
        </mxCell>
        <mxCell id="MfB2ehJxBQ1HAs2-n-3X-104" style="edgeStyle=orthogonalEdgeStyle;rounded=0;orthogonalLoop=1;jettySize=auto;html=1;fontFamily=Montserrat Black;fontSource=https%3A%2F%2Ffonts.googleapis.com%2Fcss%3Ffamily%3DMontserrat%2BBlack;fontSize=30;fontColor=#B266FF;" parent="1" source="MfB2ehJxBQ1HAs2-n-3X-102" edge="1">
          <mxGeometry relative="1" as="geometry">
            <mxPoint x="2320" y="437.2349999999999" as="targetPoint" />
          </mxGeometry>
        </mxCell>
        <mxCell id="MfB2ehJxBQ1HAs2-n-3X-102" value="" style="aspect=fixed;perimeter=ellipsePerimeter;html=1;align=center;shadow=0;dashed=0;spacingTop=3;image;image=img/lib/active_directory/mac_client.svg;rounded=1;fontFamily=Montserrat;fontSource=https%3A%2F%2Ffonts.googleapis.com%2Fcss%3Ffamily%3DMontserrat;fontSize=14;fontColor=#FFFFFF;" parent="1" vertex="1">
          <mxGeometry x="1960" y="400" width="70" height="74.47" as="geometry" />
        </mxCell>
        <mxCell id="MfB2ehJxBQ1HAs2-n-3X-103" value="Client" style="text;strokeColor=none;align=center;fillColor=none;html=1;verticalAlign=middle;whiteSpace=wrap;rounded=0;fontFamily=Montserrat;fontSource=https%3A%2F%2Ffonts.googleapis.com%2Fcss%3Ffamily%3DMontserrat;fontSize=14;fontColor=#66B2FF;fontStyle=1" parent="1" vertex="1">
          <mxGeometry x="1965" y="490" width="60" height="14.47" as="geometry" />
        </mxCell>
        <mxCell id="MfB2ehJxBQ1HAs2-n-3X-105" value="&lt;font data-font-src=&quot;https://fonts.googleapis.com/css?family=Montserrat&quot; face=&quot;Montserrat&quot; style=&quot;font-size: 14px;&quot;&gt;send OTP to verify email&lt;/font&gt;" style="text;strokeColor=none;align=center;fillColor=none;html=1;verticalAlign=middle;whiteSpace=wrap;rounded=0;labelBackgroundColor=none;fontFamily=Montserrat Black;fontSource=https%3A%2F%2Ffonts.googleapis.com%2Fcss%3Ffamily%3DMontserrat%2BBlack;fontSize=14;fontColor=#FFFFFF;fontStyle=2" parent="1" vertex="1">
          <mxGeometry x="2080" y="400" width="180" height="30" as="geometry" />
        </mxCell>
        <mxCell id="MfB2ehJxBQ1HAs2-n-3X-112" style="edgeStyle=orthogonalEdgeStyle;rounded=0;orthogonalLoop=1;jettySize=auto;html=1;fontFamily=Montserrat;fontSource=https%3A%2F%2Ffonts.googleapis.com%2Fcss%3Ffamily%3DMontserrat;fontSize=14;fontColor=#FFFFFF;" parent="1" source="MfB2ehJxBQ1HAs2-n-3X-106" edge="1">
          <mxGeometry relative="1" as="geometry">
            <mxPoint x="2720" y="437" as="targetPoint" />
          </mxGeometry>
        </mxCell>
        <mxCell id="MfB2ehJxBQ1HAs2-n-3X-106" value="" style="sketch=0;points=[[0,0,0],[0.25,0,0],[0.5,0,0],[0.75,0,0],[1,0,0],[0,1,0],[0.25,1,0],[0.5,1,0],[0.75,1,0],[1,1,0],[0,0.25,0],[0,0.5,0],[0,0.75,0],[1,0.25,0],[1,0.5,0],[1,0.75,0]];outlineConnect=0;fontColor=#232F3E;gradientColor=#F78E04;gradientDirection=north;fillColor=#D05C17;strokeColor=#ffffff;dashed=0;verticalLabelPosition=bottom;verticalAlign=top;align=center;html=1;fontSize=12;fontStyle=0;aspect=fixed;shape=mxgraph.aws4.resourceIcon;resIcon=mxgraph.aws4.elemental;rounded=1;fontFamily=Montserrat;fontSource=https%3A%2F%2Ffonts.googleapis.com%2Fcss%3Ffamily%3DMontserrat;" parent="1" vertex="1">
          <mxGeometry x="2340" y="402.24" width="70" height="70" as="geometry" />
        </mxCell>
        <mxCell id="MfB2ehJxBQ1HAs2-n-3X-107" value="&lt;p style=&quot;line-height: 130%;&quot;&gt;OTP Service&lt;/p&gt;" style="text;strokeColor=none;align=center;fillColor=none;html=1;verticalAlign=middle;whiteSpace=wrap;rounded=0;fontFamily=Montserrat;fontSource=https%3A%2F%2Ffonts.googleapis.com%2Fcss%3Ffamily%3DMontserrat;fontSize=14;fontColor=#66B2FF;fontStyle=1" parent="1" vertex="1">
          <mxGeometry x="2320" y="474.47" width="110" height="30" as="geometry" />
        </mxCell>
        <mxCell id="MfB2ehJxBQ1HAs2-n-3X-108" style="edgeStyle=orthogonalEdgeStyle;rounded=0;orthogonalLoop=1;jettySize=auto;html=1;fontFamily=Montserrat;fontSource=https%3A%2F%2Ffonts.googleapis.com%2Fcss%3Ffamily%3DMontserrat;fontSize=14;fontColor=#66B2FF;" parent="1" edge="1">
          <mxGeometry relative="1" as="geometry">
            <mxPoint x="2374.5" y="710" as="targetPoint" />
            <mxPoint x="2374.5" y="504.47" as="sourcePoint" />
          </mxGeometry>
        </mxCell>
        <mxCell id="MfB2ehJxBQ1HAs2-n-3X-109" value="" style="sketch=0;aspect=fixed;html=1;points=[];align=center;image;fontSize=12;image=img/lib/mscae/Cache_Redis_Product.svg;rounded=1;fontFamily=Montserrat;fontSource=https%3A%2F%2Ffonts.googleapis.com%2Fcss%3Ffamily%3DMontserrat;fontColor=#FFFFFF;" parent="1" vertex="1">
          <mxGeometry x="2337.5" y="720" width="75" height="63" as="geometry" />
        </mxCell>
        <mxCell id="MfB2ehJxBQ1HAs2-n-3X-110" value="&lt;p style=&quot;line-height: 130%;&quot;&gt;Redis Cache&lt;/p&gt;" style="text;strokeColor=none;align=center;fillColor=none;html=1;verticalAlign=middle;whiteSpace=wrap;rounded=0;fontFamily=Montserrat;fontSource=https%3A%2F%2Ffonts.googleapis.com%2Fcss%3Ffamily%3DMontserrat;fontSize=14;fontColor=#66B2FF;fontStyle=1" parent="1" vertex="1">
          <mxGeometry x="2320" y="783" width="110" height="30" as="geometry" />
        </mxCell>
        <mxCell id="MfB2ehJxBQ1HAs2-n-3X-111" value="&lt;p style=&quot;line-height: 140%;&quot;&gt;verify using the cache and then evict the record&lt;/p&gt;" style="text;strokeColor=none;align=left;fillColor=none;html=1;verticalAlign=middle;whiteSpace=wrap;rounded=0;fontFamily=Montserrat;fontSource=https%3A%2F%2Ffonts.googleapis.com%2Fcss%3Ffamily%3DMontserrat;fontSize=14;fontColor=#FFFFFF;fontStyle=2" parent="1" vertex="1">
          <mxGeometry x="2170" y="580" width="190" height="60" as="geometry" />
        </mxCell>
        <mxCell id="MfB2ehJxBQ1HAs2-n-3X-113" value="&lt;p style=&quot;line-height: 140%;&quot;&gt;&lt;font data-font-src=&quot;https://fonts.googleapis.com/css?family=Montserrat&quot; face=&quot;Montserrat&quot; style=&quot;font-size: 14px;&quot;&gt;notify the Authentication service that the email is verified&lt;/font&gt;&lt;/p&gt;" style="text;strokeColor=none;align=left;fillColor=none;html=1;verticalAlign=middle;whiteSpace=wrap;rounded=0;labelBackgroundColor=none;fontFamily=Montserrat Black;fontSource=https%3A%2F%2Ffonts.googleapis.com%2Fcss%3Ffamily%3DMontserrat%2BBlack;fontSize=14;fontColor=#FFFFFF;fontStyle=2" parent="1" vertex="1">
          <mxGeometry x="2450" y="385" width="230" height="40" as="geometry" />
        </mxCell>
        <mxCell id="MfB2ehJxBQ1HAs2-n-3X-114" value="" style="sketch=0;points=[[0,0,0],[0.25,0,0],[0.5,0,0],[0.75,0,0],[1,0,0],[0,1,0],[0.25,1,0],[0.5,1,0],[0.75,1,0],[1,1,0],[0,0.25,0],[0,0.5,0],[0,0.75,0],[1,0.25,0],[1,0.5,0],[1,0.75,0]];outlineConnect=0;fontColor=#232F3E;gradientColor=#F78E04;gradientDirection=north;fillColor=#D05C17;strokeColor=#ffffff;dashed=0;verticalLabelPosition=bottom;verticalAlign=top;align=center;html=1;fontSize=12;fontStyle=0;aspect=fixed;shape=mxgraph.aws4.resourceIcon;resIcon=mxgraph.aws4.elemental;rounded=1;fontFamily=Montserrat;fontSource=https%3A%2F%2Ffonts.googleapis.com%2Fcss%3Ffamily%3DMontserrat;" parent="1" vertex="1">
          <mxGeometry x="2740" y="402.24" width="70" height="70" as="geometry" />
        </mxCell>
        <mxCell id="MfB2ehJxBQ1HAs2-n-3X-120" style="edgeStyle=orthogonalEdgeStyle;rounded=0;orthogonalLoop=1;jettySize=auto;html=1;fontFamily=Montserrat;fontSource=https%3A%2F%2Ffonts.googleapis.com%2Fcss%3Ffamily%3DMontserrat;fontSize=14;fontColor=#FFFFFF;" parent="1" source="MfB2ehJxBQ1HAs2-n-3X-115" edge="1">
          <mxGeometry relative="1" as="geometry">
            <mxPoint x="2775" y="710" as="targetPoint" />
          </mxGeometry>
        </mxCell>
        <mxCell id="MfB2ehJxBQ1HAs2-n-3X-115" value="&lt;p style=&quot;line-height: 130%;&quot;&gt;Authentication Service&lt;/p&gt;" style="text;strokeColor=none;align=center;fillColor=none;html=1;verticalAlign=middle;whiteSpace=wrap;rounded=0;fontFamily=Montserrat;fontSource=https%3A%2F%2Ffonts.googleapis.com%2Fcss%3Ffamily%3DMontserrat;fontSize=14;fontColor=#66B2FF;fontStyle=1" parent="1" vertex="1">
          <mxGeometry x="2720" y="480" width="110" height="30" as="geometry" />
        </mxCell>
        <mxCell id="MfB2ehJxBQ1HAs2-n-3X-117" value="" style="sketch=0;aspect=fixed;html=1;points=[];align=center;image;fontSize=12;image=img/lib/mscae/Cache_Redis_Product.svg;rounded=1;fontFamily=Montserrat;fontSource=https%3A%2F%2Ffonts.googleapis.com%2Fcss%3Ffamily%3DMontserrat;fontColor=#FFFFFF;" parent="1" vertex="1">
          <mxGeometry x="2737.5" y="720" width="75" height="63" as="geometry" />
        </mxCell>
        <mxCell id="MfB2ehJxBQ1HAs2-n-3X-118" value="&lt;p style=&quot;line-height: 130%;&quot;&gt;Redis Cache&lt;/p&gt;" style="text;strokeColor=none;align=center;fillColor=none;html=1;verticalAlign=middle;whiteSpace=wrap;rounded=0;fontFamily=Montserrat;fontSource=https%3A%2F%2Ffonts.googleapis.com%2Fcss%3Ffamily%3DMontserrat;fontSize=14;fontColor=#66B2FF;fontStyle=1" parent="1" vertex="1">
          <mxGeometry x="2720" y="783" width="110" height="30" as="geometry" />
        </mxCell>
        <mxCell id="MfB2ehJxBQ1HAs2-n-3X-119" value="&lt;p style=&quot;line-height: 140%;&quot;&gt;set the email to be verified in the cache record&lt;/p&gt;" style="text;strokeColor=none;align=left;fillColor=none;html=1;verticalAlign=middle;whiteSpace=wrap;rounded=0;fontFamily=Montserrat;fontSource=https%3A%2F%2Ffonts.googleapis.com%2Fcss%3Ffamily%3DMontserrat;fontSize=14;fontColor=#FFFFFF;fontStyle=2" parent="1" vertex="1">
          <mxGeometry x="2790" y="590" width="200" height="50" as="geometry" />
        </mxCell>
        <mxCell id="MfB2ehJxBQ1HAs2-n-3X-130" value="" style="edgeStyle=segmentEdgeStyle;endArrow=classic;html=1;curved=0;rounded=0;endSize=8;startSize=8;fontFamily=Montserrat;fontSource=https%3A%2F%2Ffonts.googleapis.com%2Fcss%3Ffamily%3DMontserrat;fontSize=14;fontColor=#FFFFFF;" parent="1" edge="1">
          <mxGeometry width="50" height="50" relative="1" as="geometry">
            <mxPoint x="2370" y="390" as="sourcePoint" />
            <mxPoint x="2040" y="280" as="targetPoint" />
            <Array as="points">
              <mxPoint x="2370" y="350" />
              <mxPoint x="2370" y="280" />
            </Array>
          </mxGeometry>
        </mxCell>
        <mxCell id="MfB2ehJxBQ1HAs2-n-3X-131" value="&lt;font data-font-src=&quot;https://fonts.googleapis.com/css?family=Montserrat&quot; face=&quot;Montserrat&quot; style=&quot;font-size: 14px;&quot;&gt;send back OK response to client&lt;/font&gt;" style="text;strokeColor=none;align=center;fillColor=none;html=1;verticalAlign=middle;whiteSpace=wrap;rounded=0;labelBackgroundColor=none;fontFamily=Montserrat Black;fontSource=https%3A%2F%2Ffonts.googleapis.com%2Fcss%3Ffamily%3DMontserrat%2BBlack;fontSize=14;fontColor=#FFFFFF;fontStyle=2" parent="1" vertex="1">
          <mxGeometry x="2090" y="240" width="230" height="30" as="geometry" />
        </mxCell>
        <mxCell id="MfB2ehJxBQ1HAs2-n-3X-132" value="&lt;h2&gt;Creating the Profile&lt;/h2&gt;" style="text;strokeColor=none;align=center;fillColor=none;verticalAlign=middle;whiteSpace=wrap;rounded=0;fontFamily=Montserrat Black;fontSource=https%3A%2F%2Ffonts.googleapis.com%2Fcss%3Ffamily%3DMontserrat%2BBlack;fontSize=30;fontColor=#B266FF;fontStyle=0;labelBackgroundColor=none;html=1;" parent="1" vertex="1">
          <mxGeometry x="3280" y="-40" width="490" height="60" as="geometry" />
        </mxCell>
        <mxCell id="MfB2ehJxBQ1HAs2-n-3X-135" style="edgeStyle=entityRelationEdgeStyle;rounded=0;orthogonalLoop=1;jettySize=auto;html=1;fontFamily=Montserrat;fontSource=https%3A%2F%2Ffonts.googleapis.com%2Fcss%3Ffamily%3DMontserrat;fontSize=14;fontColor=#FFFFFF;" parent="1" source="MfB2ehJxBQ1HAs2-n-3X-133" edge="1">
          <mxGeometry relative="1" as="geometry">
            <mxPoint x="3640" y="437.2349999999999" as="targetPoint" />
          </mxGeometry>
        </mxCell>
        <mxCell id="MfB2ehJxBQ1HAs2-n-3X-133" value="" style="aspect=fixed;perimeter=ellipsePerimeter;html=1;align=center;shadow=0;dashed=0;spacingTop=3;image;image=img/lib/active_directory/mac_client.svg;rounded=1;fontFamily=Montserrat;fontSource=https%3A%2F%2Ffonts.googleapis.com%2Fcss%3Ffamily%3DMontserrat;fontSize=14;fontColor=#FFFFFF;" parent="1" vertex="1">
          <mxGeometry x="3280" y="400" width="70" height="74.47" as="geometry" />
        </mxCell>
        <mxCell id="MfB2ehJxBQ1HAs2-n-3X-134" value="Client" style="text;strokeColor=none;align=center;fillColor=none;html=1;verticalAlign=middle;whiteSpace=wrap;rounded=0;fontFamily=Montserrat;fontSource=https%3A%2F%2Ffonts.googleapis.com%2Fcss%3Ffamily%3DMontserrat;fontSize=14;fontColor=#66B2FF;fontStyle=1" parent="1" vertex="1">
          <mxGeometry x="3285" y="490" width="60" height="14.47" as="geometry" />
        </mxCell>
        <mxCell id="MfB2ehJxBQ1HAs2-n-3X-136" value="&lt;font data-font-src=&quot;https://fonts.googleapis.com/css?family=Montserrat&quot; face=&quot;Montserrat&quot; style=&quot;font-size: 14px;&quot;&gt;send password&lt;/font&gt;" style="text;strokeColor=none;align=center;fillColor=none;html=1;verticalAlign=middle;whiteSpace=wrap;rounded=0;labelBackgroundColor=none;fontFamily=Montserrat Black;fontSource=https%3A%2F%2Ffonts.googleapis.com%2Fcss%3Ffamily%3DMontserrat%2BBlack;fontSize=14;fontColor=#FFFFFF;fontStyle=2" parent="1" vertex="1">
          <mxGeometry x="3420" y="400" width="125" height="30" as="geometry" />
        </mxCell>
        <mxCell id="MfB2ehJxBQ1HAs2-n-3X-156" style="edgeStyle=entityRelationEdgeStyle;rounded=0;orthogonalLoop=1;jettySize=auto;html=1;fontFamily=Montserrat;fontSource=https%3A%2F%2Ffonts.googleapis.com%2Fcss%3Ffamily%3DMontserrat;fontSize=14;fontColor=#FFFFFF;" parent="1" source="MfB2ehJxBQ1HAs2-n-3X-137" edge="1">
          <mxGeometry relative="1" as="geometry">
            <mxPoint x="4080" y="440" as="targetPoint" />
          </mxGeometry>
        </mxCell>
        <mxCell id="MfB2ehJxBQ1HAs2-n-3X-137" value="" style="sketch=0;points=[[0,0,0],[0.25,0,0],[0.5,0,0],[0.75,0,0],[1,0,0],[0,1,0],[0.25,1,0],[0.5,1,0],[0.75,1,0],[1,1,0],[0,0.25,0],[0,0.5,0],[0,0.75,0],[1,0.25,0],[1,0.5,0],[1,0.75,0]];outlineConnect=0;fontColor=#232F3E;gradientColor=#F78E04;gradientDirection=north;fillColor=#D05C17;strokeColor=#ffffff;dashed=0;verticalLabelPosition=bottom;verticalAlign=top;align=center;html=1;fontSize=12;fontStyle=0;aspect=fixed;shape=mxgraph.aws4.resourceIcon;resIcon=mxgraph.aws4.elemental;rounded=1;fontFamily=Montserrat;fontSource=https%3A%2F%2Ffonts.googleapis.com%2Fcss%3Ffamily%3DMontserrat;" parent="1" vertex="1">
          <mxGeometry x="3660" y="400" width="70" height="70" as="geometry" />
        </mxCell>
        <mxCell id="MfB2ehJxBQ1HAs2-n-3X-138" value="&lt;p style=&quot;line-height: 130%;&quot;&gt;Authentication Service&lt;/p&gt;" style="text;strokeColor=none;align=center;fillColor=none;html=1;verticalAlign=middle;whiteSpace=wrap;rounded=0;fontFamily=Montserrat;fontSource=https%3A%2F%2Ffonts.googleapis.com%2Fcss%3Ffamily%3DMontserrat;fontSize=14;fontColor=#66B2FF;fontStyle=1" parent="1" vertex="1">
          <mxGeometry x="3640" y="477.76" width="110" height="30" as="geometry" />
        </mxCell>
        <mxCell id="MfB2ehJxBQ1HAs2-n-3X-139" style="edgeStyle=orthogonalEdgeStyle;rounded=0;orthogonalLoop=1;jettySize=auto;html=1;fontFamily=Montserrat;fontSource=https%3A%2F%2Ffonts.googleapis.com%2Fcss%3Ffamily%3DMontserrat;fontSize=14;fontColor=#66B2FF;" parent="1" edge="1">
          <mxGeometry relative="1" as="geometry">
            <mxPoint x="3694.5" y="725" as="targetPoint" />
            <mxPoint x="3694.5" y="519.47" as="sourcePoint" />
          </mxGeometry>
        </mxCell>
        <mxCell id="MfB2ehJxBQ1HAs2-n-3X-140" value="" style="sketch=0;aspect=fixed;html=1;points=[];align=center;image;fontSize=12;image=img/lib/mscae/Cache_Redis_Product.svg;rounded=1;fontFamily=Montserrat;fontSource=https%3A%2F%2Ffonts.googleapis.com%2Fcss%3Ffamily%3DMontserrat;fontColor=#FFFFFF;" parent="1" vertex="1">
          <mxGeometry x="3657.5" y="735.53" width="75" height="63" as="geometry" />
        </mxCell>
        <mxCell id="MfB2ehJxBQ1HAs2-n-3X-141" value="&lt;p style=&quot;line-height: 130%;&quot;&gt;Redis Cache&lt;/p&gt;" style="text;strokeColor=none;align=center;fillColor=none;html=1;verticalAlign=middle;whiteSpace=wrap;rounded=0;fontFamily=Montserrat;fontSource=https%3A%2F%2Ffonts.googleapis.com%2Fcss%3Ffamily%3DMontserrat;fontSize=14;fontColor=#66B2FF;fontStyle=1" parent="1" vertex="1">
          <mxGeometry x="3640" y="798.53" width="110" height="30" as="geometry" />
        </mxCell>
        <mxCell id="MfB2ehJxBQ1HAs2-n-3X-142" value="&lt;p style=&quot;line-height: 140%;&quot;&gt;evict the record from the cache&lt;/p&gt;" style="text;strokeColor=none;align=left;fillColor=none;html=1;verticalAlign=middle;whiteSpace=wrap;rounded=0;fontFamily=Montserrat;fontSource=https%3A%2F%2Ffonts.googleapis.com%2Fcss%3Ffamily%3DMontserrat;fontSize=14;fontColor=#FFFFFF;fontStyle=2" parent="1" vertex="1">
          <mxGeometry x="3500" y="600" width="180" height="44.47" as="geometry" />
        </mxCell>
        <mxCell id="MfB2ehJxBQ1HAs2-n-3X-143" value="" style="shape=cylinder3;whiteSpace=wrap;html=1;boundedLbl=1;backgroundOutline=1;size=15;rounded=1;fontFamily=Montserrat;fontSource=https%3A%2F%2Ffonts.googleapis.com%2Fcss%3Ffamily%3DMontserrat;fontSize=14;fontColor=#FFFFFF;" parent="1" vertex="1">
          <mxGeometry x="3665" y="90" width="60" height="80" as="geometry" />
        </mxCell>
        <mxCell id="MfB2ehJxBQ1HAs2-n-3X-144" value="&lt;p style=&quot;line-height: 130%;&quot;&gt;Authentication Database&lt;/p&gt;" style="text;strokeColor=none;align=center;fillColor=none;html=1;verticalAlign=middle;whiteSpace=wrap;rounded=0;fontFamily=Montserrat;fontSource=https%3A%2F%2Ffonts.googleapis.com%2Fcss%3Ffamily%3DMontserrat;fontSize=14;fontColor=#66B2FF;fontStyle=1" parent="1" vertex="1">
          <mxGeometry x="3640" y="180" width="110" height="30" as="geometry" />
        </mxCell>
        <mxCell id="MfB2ehJxBQ1HAs2-n-3X-145" value="Schema" style="shape=table;startSize=30;container=1;collapsible=0;childLayout=tableLayout;rounded=1;fontFamily=Montserrat;fontSource=https%3A%2F%2Ffonts.googleapis.com%2Fcss%3Ffamily%3DMontserrat;fontSize=14;fontColor=#FFFFFF;" parent="1" vertex="1">
          <mxGeometry x="3765" y="90" width="200" height="110" as="geometry" />
        </mxCell>
        <mxCell id="MfB2ehJxBQ1HAs2-n-3X-146" value="" style="shape=tableRow;horizontal=0;startSize=0;swimlaneHead=0;swimlaneBody=0;top=0;left=0;bottom=0;right=0;collapsible=0;dropTarget=0;fillColor=none;points=[[0,0.5],[1,0.5]];portConstraint=eastwest;rounded=1;fontFamily=Montserrat;fontSource=https%3A%2F%2Ffonts.googleapis.com%2Fcss%3Ffamily%3DMontserrat;fontSize=14;fontColor=#FFFFFF;" parent="MfB2ehJxBQ1HAs2-n-3X-145" vertex="1">
          <mxGeometry y="30" width="200" height="40" as="geometry" />
        </mxCell>
        <mxCell id="MfB2ehJxBQ1HAs2-n-3X-147" value="Email Address" style="shape=partialRectangle;html=1;whiteSpace=wrap;connectable=0;overflow=hidden;fillColor=none;top=0;left=0;bottom=0;right=0;pointerEvents=1;rounded=1;fontFamily=Montserrat;fontSource=https%3A%2F%2Ffonts.googleapis.com%2Fcss%3Ffamily%3DMontserrat;fontSize=14;fontColor=#FFFFFF;" parent="MfB2ehJxBQ1HAs2-n-3X-146" vertex="1">
          <mxGeometry width="124" height="40" as="geometry">
            <mxRectangle width="124" height="40" as="alternateBounds" />
          </mxGeometry>
        </mxCell>
        <mxCell id="MfB2ehJxBQ1HAs2-n-3X-148" value="String" style="shape=partialRectangle;html=1;whiteSpace=wrap;connectable=0;overflow=hidden;fillColor=none;top=0;left=0;bottom=0;right=0;pointerEvents=1;rounded=1;fontFamily=Montserrat;fontSource=https%3A%2F%2Ffonts.googleapis.com%2Fcss%3Ffamily%3DMontserrat;fontSize=14;fontColor=#FFFFFF;" parent="MfB2ehJxBQ1HAs2-n-3X-146" vertex="1">
          <mxGeometry x="124" width="76" height="40" as="geometry">
            <mxRectangle width="76" height="40" as="alternateBounds" />
          </mxGeometry>
        </mxCell>
        <mxCell id="MfB2ehJxBQ1HAs2-n-3X-149" value="" style="shape=tableRow;horizontal=0;startSize=0;swimlaneHead=0;swimlaneBody=0;top=0;left=0;bottom=0;right=0;collapsible=0;dropTarget=0;fillColor=none;points=[[0,0.5],[1,0.5]];portConstraint=eastwest;rounded=1;fontFamily=Montserrat;fontSource=https%3A%2F%2Ffonts.googleapis.com%2Fcss%3Ffamily%3DMontserrat;fontSize=14;fontColor=#FFFFFF;" parent="MfB2ehJxBQ1HAs2-n-3X-145" vertex="1">
          <mxGeometry y="70" width="200" height="40" as="geometry" />
        </mxCell>
        <mxCell id="MfB2ehJxBQ1HAs2-n-3X-150" value="Password" style="shape=partialRectangle;html=1;whiteSpace=wrap;connectable=0;overflow=hidden;fillColor=none;top=0;left=0;bottom=0;right=0;pointerEvents=1;rounded=1;fontFamily=Montserrat;fontSource=https%3A%2F%2Ffonts.googleapis.com%2Fcss%3Ffamily%3DMontserrat;fontSize=14;fontColor=#FFFFFF;" parent="MfB2ehJxBQ1HAs2-n-3X-149" vertex="1">
          <mxGeometry width="124" height="40" as="geometry">
            <mxRectangle width="124" height="40" as="alternateBounds" />
          </mxGeometry>
        </mxCell>
        <mxCell id="MfB2ehJxBQ1HAs2-n-3X-151" value="String" style="shape=partialRectangle;html=1;whiteSpace=wrap;connectable=0;overflow=hidden;fillColor=none;top=0;left=0;bottom=0;right=0;pointerEvents=1;rounded=1;fontFamily=Montserrat;fontSource=https%3A%2F%2Ffonts.googleapis.com%2Fcss%3Ffamily%3DMontserrat;fontSize=14;fontColor=#FFFFFF;" parent="MfB2ehJxBQ1HAs2-n-3X-149" vertex="1">
          <mxGeometry x="124" width="76" height="40" as="geometry">
            <mxRectangle width="76" height="40" as="alternateBounds" />
          </mxGeometry>
        </mxCell>
        <mxCell id="MfB2ehJxBQ1HAs2-n-3X-157" value="&lt;p style=&quot;line-height: 140%;&quot;&gt;&lt;font face=&quot;Montserrat&quot;&gt;notify profile service to create new profile&lt;/font&gt;&lt;/p&gt;" style="text;strokeColor=none;align=left;fillColor=none;html=1;verticalAlign=middle;whiteSpace=wrap;rounded=0;labelBackgroundColor=none;fontFamily=Montserrat Black;fontSource=https%3A%2F%2Ffonts.googleapis.com%2Fcss%3Ffamily%3DMontserrat%2BBlack;fontSize=14;fontColor=#FFFFFF;fontStyle=2" parent="1" vertex="1">
          <mxGeometry x="3830" y="390" width="170" height="40" as="geometry" />
        </mxCell>
        <mxCell id="MfB2ehJxBQ1HAs2-n-3X-158" value="" style="sketch=0;points=[[0,0,0],[0.25,0,0],[0.5,0,0],[0.75,0,0],[1,0,0],[0,1,0],[0.25,1,0],[0.5,1,0],[0.75,1,0],[1,1,0],[0,0.25,0],[0,0.5,0],[0,0.75,0],[1,0.25,0],[1,0.5,0],[1,0.75,0]];outlineConnect=0;fontColor=#232F3E;gradientColor=#F78E04;gradientDirection=north;fillColor=#D05C17;strokeColor=#ffffff;dashed=0;verticalLabelPosition=bottom;verticalAlign=top;align=center;html=1;fontSize=12;fontStyle=0;aspect=fixed;shape=mxgraph.aws4.resourceIcon;resIcon=mxgraph.aws4.elemental;rounded=1;fontFamily=Montserrat;fontSource=https%3A%2F%2Ffonts.googleapis.com%2Fcss%3Ffamily%3DMontserrat;" parent="1" vertex="1">
          <mxGeometry x="4100" y="400" width="70" height="70" as="geometry" />
        </mxCell>
        <mxCell id="MfB2ehJxBQ1HAs2-n-3X-173" style="edgeStyle=entityRelationEdgeStyle;rounded=0;orthogonalLoop=1;jettySize=auto;html=1;fontFamily=Montserrat;fontSource=https%3A%2F%2Ffonts.googleapis.com%2Fcss%3Ffamily%3DMontserrat;fontSize=14;fontColor=#FFFFFF;" parent="1" edge="1">
          <mxGeometry relative="1" as="geometry">
            <mxPoint x="4080" y="780" as="targetPoint" />
            <mxPoint x="4200" y="490" as="sourcePoint" />
          </mxGeometry>
        </mxCell>
        <mxCell id="MfB2ehJxBQ1HAs2-n-3X-159" value="&lt;p style=&quot;line-height: 130%;&quot;&gt;Profile Service&lt;/p&gt;" style="text;strokeColor=none;align=center;fillColor=none;html=1;verticalAlign=middle;whiteSpace=wrap;rounded=0;fontFamily=Montserrat;fontSource=https%3A%2F%2Ffonts.googleapis.com%2Fcss%3Ffamily%3DMontserrat;fontSize=14;fontColor=#66B2FF;fontStyle=1" parent="1" vertex="1">
          <mxGeometry x="4080" y="472.24" width="110" height="30" as="geometry" />
        </mxCell>
        <mxCell id="MfB2ehJxBQ1HAs2-n-3X-161" value="&lt;p style=&quot;line-height: 140%;&quot;&gt;&lt;font face=&quot;Montserrat&quot;&gt;create new profile in the profile database&lt;/font&gt;&lt;/p&gt;" style="text;strokeColor=none;align=center;fillColor=none;html=1;verticalAlign=middle;whiteSpace=wrap;rounded=0;labelBackgroundColor=none;fontFamily=Montserrat Black;fontSource=https%3A%2F%2Ffonts.googleapis.com%2Fcss%3Ffamily%3DMontserrat%2BBlack;fontSize=14;fontColor=#FFFFFF;fontStyle=2" parent="1" vertex="1">
          <mxGeometry x="4050" y="590" width="170" height="40" as="geometry" />
        </mxCell>
        <mxCell id="MfB2ehJxBQ1HAs2-n-3X-162" value="" style="shape=cylinder3;whiteSpace=wrap;html=1;boundedLbl=1;backgroundOutline=1;size=15;rounded=1;fontFamily=Montserrat;fontSource=https%3A%2F%2Ffonts.googleapis.com%2Fcss%3Ffamily%3DMontserrat;fontSize=14;fontColor=#FFFFFF;" parent="1" vertex="1">
          <mxGeometry x="4105" y="735.53" width="60" height="80" as="geometry" />
        </mxCell>
        <mxCell id="MfB2ehJxBQ1HAs2-n-3X-163" value="&lt;p style=&quot;line-height: 130%;&quot;&gt;Profile Database&lt;/p&gt;" style="text;strokeColor=none;align=center;fillColor=none;html=1;verticalAlign=middle;whiteSpace=wrap;rounded=0;fontFamily=Montserrat;fontSource=https%3A%2F%2Ffonts.googleapis.com%2Fcss%3Ffamily%3DMontserrat;fontSize=14;fontColor=#66B2FF;fontStyle=1" parent="1" vertex="1">
          <mxGeometry x="4090" y="825.53" width="110" height="30" as="geometry" />
        </mxCell>
        <mxCell id="MfB2ehJxBQ1HAs2-n-3X-164" value="Schema" style="shape=table;startSize=30;container=1;collapsible=0;childLayout=tableLayout;rounded=1;fontFamily=Montserrat;fontSource=https%3A%2F%2Ffonts.googleapis.com%2Fcss%3Ffamily%3DMontserrat;fontSize=14;fontColor=#FFFFFF;" parent="1" vertex="1">
          <mxGeometry x="4215" y="735.53" width="200" height="150" as="geometry" />
        </mxCell>
        <mxCell id="MfB2ehJxBQ1HAs2-n-3X-175" style="shape=tableRow;horizontal=0;startSize=0;swimlaneHead=0;swimlaneBody=0;top=0;left=0;bottom=0;right=0;collapsible=0;dropTarget=0;fillColor=none;points=[[0,0.5],[1,0.5]];portConstraint=eastwest;rounded=1;fontFamily=Montserrat;fontSource=https%3A%2F%2Ffonts.googleapis.com%2Fcss%3Ffamily%3DMontserrat;fontSize=14;fontColor=#FFFFFF;" parent="MfB2ehJxBQ1HAs2-n-3X-164" vertex="1">
          <mxGeometry y="30" width="200" height="40" as="geometry" />
        </mxCell>
        <mxCell id="MfB2ehJxBQ1HAs2-n-3X-176" value="Full Name" style="shape=partialRectangle;html=1;whiteSpace=wrap;connectable=0;overflow=hidden;fillColor=none;top=0;left=0;bottom=0;right=0;pointerEvents=1;rounded=1;fontFamily=Montserrat;fontSource=https%3A%2F%2Ffonts.googleapis.com%2Fcss%3Ffamily%3DMontserrat;fontSize=14;fontColor=#FFFFFF;" parent="MfB2ehJxBQ1HAs2-n-3X-175" vertex="1">
          <mxGeometry width="124" height="40" as="geometry">
            <mxRectangle width="124" height="40" as="alternateBounds" />
          </mxGeometry>
        </mxCell>
        <mxCell id="MfB2ehJxBQ1HAs2-n-3X-177" value="String" style="shape=partialRectangle;html=1;whiteSpace=wrap;connectable=0;overflow=hidden;fillColor=none;top=0;left=0;bottom=0;right=0;pointerEvents=1;rounded=1;fontFamily=Montserrat;fontSource=https%3A%2F%2Ffonts.googleapis.com%2Fcss%3Ffamily%3DMontserrat;fontSize=14;fontColor=#FFFFFF;" parent="MfB2ehJxBQ1HAs2-n-3X-175" vertex="1">
          <mxGeometry x="124" width="76" height="40" as="geometry">
            <mxRectangle width="76" height="40" as="alternateBounds" />
          </mxGeometry>
        </mxCell>
        <mxCell id="MfB2ehJxBQ1HAs2-n-3X-165" value="" style="shape=tableRow;horizontal=0;startSize=0;swimlaneHead=0;swimlaneBody=0;top=0;left=0;bottom=0;right=0;collapsible=0;dropTarget=0;fillColor=none;points=[[0,0.5],[1,0.5]];portConstraint=eastwest;rounded=1;fontFamily=Montserrat;fontSource=https%3A%2F%2Ffonts.googleapis.com%2Fcss%3Ffamily%3DMontserrat;fontSize=14;fontColor=#FFFFFF;" parent="MfB2ehJxBQ1HAs2-n-3X-164" vertex="1">
          <mxGeometry y="70" width="200" height="40" as="geometry" />
        </mxCell>
        <mxCell id="MfB2ehJxBQ1HAs2-n-3X-166" value="Email Address" style="shape=partialRectangle;html=1;whiteSpace=wrap;connectable=0;overflow=hidden;fillColor=none;top=0;left=0;bottom=0;right=0;pointerEvents=1;rounded=1;fontFamily=Montserrat;fontSource=https%3A%2F%2Ffonts.googleapis.com%2Fcss%3Ffamily%3DMontserrat;fontSize=14;fontColor=#FFFFFF;" parent="MfB2ehJxBQ1HAs2-n-3X-165" vertex="1">
          <mxGeometry width="124" height="40" as="geometry">
            <mxRectangle width="124" height="40" as="alternateBounds" />
          </mxGeometry>
        </mxCell>
        <mxCell id="MfB2ehJxBQ1HAs2-n-3X-167" value="String" style="shape=partialRectangle;html=1;whiteSpace=wrap;connectable=0;overflow=hidden;fillColor=none;top=0;left=0;bottom=0;right=0;pointerEvents=1;rounded=1;fontFamily=Montserrat;fontSource=https%3A%2F%2Ffonts.googleapis.com%2Fcss%3Ffamily%3DMontserrat;fontSize=14;fontColor=#FFFFFF;" parent="MfB2ehJxBQ1HAs2-n-3X-165" vertex="1">
          <mxGeometry x="124" width="76" height="40" as="geometry">
            <mxRectangle width="76" height="40" as="alternateBounds" />
          </mxGeometry>
        </mxCell>
        <mxCell id="MfB2ehJxBQ1HAs2-n-3X-168" value="" style="shape=tableRow;horizontal=0;startSize=0;swimlaneHead=0;swimlaneBody=0;top=0;left=0;bottom=0;right=0;collapsible=0;dropTarget=0;fillColor=none;points=[[0,0.5],[1,0.5]];portConstraint=eastwest;rounded=1;fontFamily=Montserrat;fontSource=https%3A%2F%2Ffonts.googleapis.com%2Fcss%3Ffamily%3DMontserrat;fontSize=14;fontColor=#FFFFFF;" parent="MfB2ehJxBQ1HAs2-n-3X-164" vertex="1">
          <mxGeometry y="110" width="200" height="40" as="geometry" />
        </mxCell>
        <mxCell id="MfB2ehJxBQ1HAs2-n-3X-169" value="Password" style="shape=partialRectangle;html=1;whiteSpace=wrap;connectable=0;overflow=hidden;fillColor=none;top=0;left=0;bottom=0;right=0;pointerEvents=1;rounded=1;fontFamily=Montserrat;fontSource=https%3A%2F%2Ffonts.googleapis.com%2Fcss%3Ffamily%3DMontserrat;fontSize=14;fontColor=#FFFFFF;" parent="MfB2ehJxBQ1HAs2-n-3X-168" vertex="1">
          <mxGeometry width="124" height="40" as="geometry">
            <mxRectangle width="124" height="40" as="alternateBounds" />
          </mxGeometry>
        </mxCell>
        <mxCell id="MfB2ehJxBQ1HAs2-n-3X-170" value="String" style="shape=partialRectangle;html=1;whiteSpace=wrap;connectable=0;overflow=hidden;fillColor=none;top=0;left=0;bottom=0;right=0;pointerEvents=1;rounded=1;fontFamily=Montserrat;fontSource=https%3A%2F%2Ffonts.googleapis.com%2Fcss%3Ffamily%3DMontserrat;fontSize=14;fontColor=#FFFFFF;" parent="MfB2ehJxBQ1HAs2-n-3X-168" vertex="1">
          <mxGeometry x="124" width="76" height="40" as="geometry">
            <mxRectangle width="76" height="40" as="alternateBounds" />
          </mxGeometry>
        </mxCell>
        <mxCell id="MfB2ehJxBQ1HAs2-n-3X-180" value="&lt;p style=&quot;line-height: 140%;&quot;&gt;&lt;font face=&quot;Montserrat&quot;&gt;store authentication details in database&lt;/font&gt;&lt;/p&gt;" style="text;strokeColor=none;align=left;fillColor=none;html=1;verticalAlign=middle;whiteSpace=wrap;rounded=0;labelBackgroundColor=none;fontFamily=Montserrat Black;fontSource=https%3A%2F%2Ffonts.googleapis.com%2Fcss%3Ffamily%3DMontserrat%2BBlack;fontSize=14;fontColor=#FFFFFF;fontStyle=2" parent="1" vertex="1">
          <mxGeometry x="3700" y="260" width="150" height="40" as="geometry" />
        </mxCell>
        <mxCell id="MfB2ehJxBQ1HAs2-n-3X-181" value="" style="edgeStyle=segmentEdgeStyle;endArrow=classic;html=1;curved=0;rounded=0;endSize=8;startSize=8;fontFamily=Montserrat;fontSource=https%3A%2F%2Ffonts.googleapis.com%2Fcss%3Ffamily%3DMontserrat;fontSize=14;fontColor=#FFFFFF;" parent="1" edge="1">
          <mxGeometry width="50" height="50" relative="1" as="geometry">
            <mxPoint x="3690" y="329.8" as="sourcePoint" />
            <mxPoint x="3400" y="330" as="targetPoint" />
            <Array as="points">
              <mxPoint x="3690" y="400.04" />
              <mxPoint x="3690" y="330.04" />
            </Array>
          </mxGeometry>
        </mxCell>
        <mxCell id="MfB2ehJxBQ1HAs2-n-3X-182" value="" style="endArrow=classic;html=1;rounded=0;fontFamily=Montserrat;fontSource=https%3A%2F%2Ffonts.googleapis.com%2Fcss%3Ffamily%3DMontserrat;fontSize=14;fontColor=#FFFFFF;" parent="1" edge="1">
          <mxGeometry width="50" height="50" relative="1" as="geometry">
            <mxPoint x="3690" y="330" as="sourcePoint" />
            <mxPoint x="3690" y="230" as="targetPoint" />
          </mxGeometry>
        </mxCell>
        <mxCell id="MfB2ehJxBQ1HAs2-n-3X-183" value="&lt;p style=&quot;line-height: 140%;&quot;&gt;&lt;font face=&quot;Montserrat&quot;&gt;generate and send JWT token to client&lt;/font&gt;&lt;/p&gt;" style="text;strokeColor=none;align=left;fillColor=none;html=1;verticalAlign=middle;whiteSpace=wrap;rounded=0;labelBackgroundColor=none;fontFamily=Montserrat Black;fontSource=https%3A%2F%2Ffonts.googleapis.com%2Fcss%3Ffamily%3DMontserrat%2BBlack;fontSize=14;fontColor=#FFFFFF;fontStyle=2" parent="1" vertex="1">
          <mxGeometry x="3450" y="280" width="150" height="40" as="geometry" />
        </mxCell>
        <mxCell id="pc8t0I94KmSoWtpbnnTX-2" value="&lt;p style=&quot;line-height: 40%;&quot;&gt;check if email is pre-&lt;/p&gt;&lt;p style=&quot;line-height: 40%;&quot;&gt;&lt;span style=&quot;background-color: initial;&quot;&gt;registered or not&lt;/span&gt;&lt;/p&gt;" style="text;strokeColor=none;align=left;fillColor=none;html=1;verticalAlign=middle;whiteSpace=wrap;rounded=0;fontFamily=Montserrat;fontSource=https%3A%2F%2Ffonts.googleapis.com%2Fcss%3Ffamily%3DMontserrat;fontSize=14;fontColor=#FFFFFF;fontStyle=2" vertex="1" parent="1">
          <mxGeometry x="580" y="275" width="150" height="50" as="geometry" />
        </mxCell>
      </root>
    </mxGraphModel>
  </diagram>
  <diagram id="36OtULmaJQv1ibIHOdez" name="Signin workflow">
    <mxGraphModel dx="1044" dy="691" grid="1" gridSize="10" guides="1" tooltips="1" connect="1" arrows="1" fold="1" page="0" pageScale="1" pageWidth="1100" pageHeight="850" math="0" shadow="0">
      <root>
        <mxCell id="0" />
        <mxCell id="1" parent="0" />
        <mxCell id="RQwWFXOWMszVGupsxsXY-1" style="edgeStyle=orthogonalEdgeStyle;rounded=0;orthogonalLoop=1;jettySize=auto;html=1;fontFamily=Montserrat;fontSource=https%3A%2F%2Ffonts.googleapis.com%2Fcss%3Ffamily%3DMontserrat;fontSize=14;fontColor=#FFFFFF;" parent="1" source="RQwWFXOWMszVGupsxsXY-2" edge="1">
          <mxGeometry relative="1" as="geometry">
            <mxPoint x="690" y="437" as="targetPoint" />
          </mxGeometry>
        </mxCell>
        <mxCell id="RQwWFXOWMszVGupsxsXY-2" value="" style="aspect=fixed;perimeter=ellipsePerimeter;html=1;align=center;shadow=0;dashed=0;spacingTop=3;image;image=img/lib/active_directory/mac_client.svg;rounded=1;fontFamily=Montserrat;fontSource=https%3A%2F%2Ffonts.googleapis.com%2Fcss%3Ffamily%3DMontserrat;fontSize=14;fontColor=#FFFFFF;" parent="1" vertex="1">
          <mxGeometry x="400" y="400" width="70" height="74.47" as="geometry" />
        </mxCell>
        <mxCell id="RQwWFXOWMszVGupsxsXY-3" value="send signin request" style="text;strokeColor=none;align=center;fillColor=none;html=1;verticalAlign=middle;whiteSpace=wrap;rounded=0;fontFamily=Montserrat;fontSource=https%3A%2F%2Ffonts.googleapis.com%2Fcss%3Ffamily%3DMontserrat;fontSize=14;fontColor=#FFFFFF;fontStyle=2" parent="1" vertex="1">
          <mxGeometry x="490" y="400" width="180" height="30" as="geometry" />
        </mxCell>
        <mxCell id="RQwWFXOWMszVGupsxsXY-4" value="Client" style="text;strokeColor=none;align=center;fillColor=none;html=1;verticalAlign=middle;whiteSpace=wrap;rounded=0;fontFamily=Montserrat;fontSource=https%3A%2F%2Ffonts.googleapis.com%2Fcss%3Ffamily%3DMontserrat;fontSize=14;fontColor=#66B2FF;fontStyle=1" parent="1" vertex="1">
          <mxGeometry x="405" y="474.47" width="60" height="30" as="geometry" />
        </mxCell>
        <mxCell id="RQwWFXOWMszVGupsxsXY-21" style="edgeStyle=orthogonalEdgeStyle;rounded=0;orthogonalLoop=1;jettySize=auto;html=1;" parent="1" source="RQwWFXOWMszVGupsxsXY-5" edge="1">
          <mxGeometry relative="1" as="geometry">
            <mxPoint x="745" y="230" as="targetPoint" />
          </mxGeometry>
        </mxCell>
        <mxCell id="RQwWFXOWMszVGupsxsXY-26" style="edgeStyle=orthogonalEdgeStyle;rounded=0;orthogonalLoop=1;jettySize=auto;html=1;" parent="1" source="RQwWFXOWMszVGupsxsXY-5" edge="1">
          <mxGeometry relative="1" as="geometry">
            <mxPoint x="1080" y="437.24" as="targetPoint" />
          </mxGeometry>
        </mxCell>
        <mxCell id="RQwWFXOWMszVGupsxsXY-5" value="" style="sketch=0;points=[[0,0,0],[0.25,0,0],[0.5,0,0],[0.75,0,0],[1,0,0],[0,1,0],[0.25,1,0],[0.5,1,0],[0.75,1,0],[1,1,0],[0,0.25,0],[0,0.5,0],[0,0.75,0],[1,0.25,0],[1,0.5,0],[1,0.75,0]];outlineConnect=0;fontColor=#232F3E;gradientColor=#F78E04;gradientDirection=north;fillColor=#D05C17;strokeColor=#ffffff;dashed=0;verticalLabelPosition=bottom;verticalAlign=top;align=center;html=1;fontSize=12;fontStyle=0;aspect=fixed;shape=mxgraph.aws4.resourceIcon;resIcon=mxgraph.aws4.elemental;rounded=1;fontFamily=Montserrat;fontSource=https%3A%2F%2Ffonts.googleapis.com%2Fcss%3Ffamily%3DMontserrat;" parent="1" vertex="1">
          <mxGeometry x="710" y="402.24" width="70" height="70" as="geometry" />
        </mxCell>
        <mxCell id="RQwWFXOWMszVGupsxsXY-6" value="&lt;p style=&quot;line-height: 130%;&quot;&gt;Authentication Service&lt;/p&gt;" style="text;strokeColor=none;align=center;fillColor=none;html=1;verticalAlign=middle;whiteSpace=wrap;rounded=0;fontFamily=Montserrat;fontSource=https%3A%2F%2Ffonts.googleapis.com%2Fcss%3Ffamily%3DMontserrat;fontSize=14;fontColor=#66B2FF;fontStyle=1" parent="1" vertex="1">
          <mxGeometry x="690" y="480" width="110" height="30" as="geometry" />
        </mxCell>
        <mxCell id="RQwWFXOWMszVGupsxsXY-7" value="" style="shape=table;startSize=0;container=1;collapsible=0;childLayout=tableLayout;rounded=1;fontFamily=Montserrat;fontSource=https%3A%2F%2Ffonts.googleapis.com%2Fcss%3Ffamily%3DMontserrat;fontSize=14;fontColor=#66B2FF;" parent="1" vertex="1">
          <mxGeometry x="510" y="455" width="140" height="80" as="geometry" />
        </mxCell>
        <mxCell id="RQwWFXOWMszVGupsxsXY-8" value="" style="shape=tableRow;horizontal=0;startSize=0;swimlaneHead=0;swimlaneBody=0;top=0;left=0;bottom=0;right=0;collapsible=0;dropTarget=0;fillColor=none;points=[[0,0.5],[1,0.5]];portConstraint=eastwest;rounded=1;fontFamily=Montserrat;fontSource=https%3A%2F%2Ffonts.googleapis.com%2Fcss%3Ffamily%3DMontserrat;fontSize=14;fontColor=#66B2FF;" parent="RQwWFXOWMszVGupsxsXY-7" vertex="1">
          <mxGeometry width="140" height="40" as="geometry" />
        </mxCell>
        <mxCell id="RQwWFXOWMszVGupsxsXY-9" value="&lt;font color=&quot;#ffffff&quot;&gt;Email Address&lt;/font&gt;" style="shape=partialRectangle;html=1;whiteSpace=wrap;connectable=0;overflow=hidden;fillColor=none;top=0;left=0;bottom=0;right=0;pointerEvents=1;rounded=1;fontFamily=Montserrat;fontSource=https%3A%2F%2Ffonts.googleapis.com%2Fcss%3Ffamily%3DMontserrat;fontSize=14;fontColor=#66B2FF;" parent="RQwWFXOWMszVGupsxsXY-8" vertex="1">
          <mxGeometry width="140" height="40" as="geometry">
            <mxRectangle width="140" height="40" as="alternateBounds" />
          </mxGeometry>
        </mxCell>
        <mxCell id="RQwWFXOWMszVGupsxsXY-10" value="" style="shape=tableRow;horizontal=0;startSize=0;swimlaneHead=0;swimlaneBody=0;top=0;left=0;bottom=0;right=0;collapsible=0;dropTarget=0;fillColor=none;points=[[0,0.5],[1,0.5]];portConstraint=eastwest;rounded=1;fontFamily=Montserrat;fontSource=https%3A%2F%2Ffonts.googleapis.com%2Fcss%3Ffamily%3DMontserrat;fontSize=14;fontColor=#66B2FF;" parent="RQwWFXOWMszVGupsxsXY-7" vertex="1">
          <mxGeometry y="40" width="140" height="40" as="geometry" />
        </mxCell>
        <mxCell id="RQwWFXOWMszVGupsxsXY-11" value="&lt;font color=&quot;#ffffff&quot;&gt;Password&lt;/font&gt;" style="shape=partialRectangle;html=1;whiteSpace=wrap;connectable=0;overflow=hidden;fillColor=none;top=0;left=0;bottom=0;right=0;pointerEvents=1;rounded=1;fontFamily=Montserrat;fontSource=https%3A%2F%2Ffonts.googleapis.com%2Fcss%3Ffamily%3DMontserrat;fontSize=14;fontColor=#66B2FF;" parent="RQwWFXOWMszVGupsxsXY-10" vertex="1">
          <mxGeometry width="140" height="40" as="geometry">
            <mxRectangle width="140" height="40" as="alternateBounds" />
          </mxGeometry>
        </mxCell>
        <mxCell id="RQwWFXOWMszVGupsxsXY-12" value="" style="shape=cylinder3;whiteSpace=wrap;html=1;boundedLbl=1;backgroundOutline=1;size=15;rounded=1;fontFamily=Montserrat;fontSource=https%3A%2F%2Ffonts.googleapis.com%2Fcss%3Ffamily%3DMontserrat;fontSize=14;fontColor=#FFFFFF;" parent="1" vertex="1">
          <mxGeometry x="715" y="90" width="60" height="80" as="geometry" />
        </mxCell>
        <mxCell id="RQwWFXOWMszVGupsxsXY-13" value="&lt;p style=&quot;line-height: 130%;&quot;&gt;Authentication Database&lt;/p&gt;" style="text;strokeColor=none;align=center;fillColor=none;html=1;verticalAlign=middle;whiteSpace=wrap;rounded=0;fontFamily=Montserrat;fontSource=https%3A%2F%2Ffonts.googleapis.com%2Fcss%3Ffamily%3DMontserrat;fontSize=14;fontColor=#66B2FF;fontStyle=1" parent="1" vertex="1">
          <mxGeometry x="690" y="180" width="110" height="30" as="geometry" />
        </mxCell>
        <mxCell id="RQwWFXOWMszVGupsxsXY-14" value="Schema" style="shape=table;startSize=30;container=1;collapsible=0;childLayout=tableLayout;rounded=1;fontFamily=Montserrat;fontSource=https%3A%2F%2Ffonts.googleapis.com%2Fcss%3Ffamily%3DMontserrat;fontSize=14;fontColor=#FFFFFF;" parent="1" vertex="1">
          <mxGeometry x="815" y="90" width="200" height="110" as="geometry" />
        </mxCell>
        <mxCell id="RQwWFXOWMszVGupsxsXY-15" value="" style="shape=tableRow;horizontal=0;startSize=0;swimlaneHead=0;swimlaneBody=0;top=0;left=0;bottom=0;right=0;collapsible=0;dropTarget=0;fillColor=none;points=[[0,0.5],[1,0.5]];portConstraint=eastwest;rounded=1;fontFamily=Montserrat;fontSource=https%3A%2F%2Ffonts.googleapis.com%2Fcss%3Ffamily%3DMontserrat;fontSize=14;fontColor=#FFFFFF;" parent="RQwWFXOWMszVGupsxsXY-14" vertex="1">
          <mxGeometry y="30" width="200" height="40" as="geometry" />
        </mxCell>
        <mxCell id="RQwWFXOWMszVGupsxsXY-16" value="Email Address" style="shape=partialRectangle;html=1;whiteSpace=wrap;connectable=0;overflow=hidden;fillColor=none;top=0;left=0;bottom=0;right=0;pointerEvents=1;rounded=1;fontFamily=Montserrat;fontSource=https%3A%2F%2Ffonts.googleapis.com%2Fcss%3Ffamily%3DMontserrat;fontSize=14;fontColor=#FFFFFF;" parent="RQwWFXOWMszVGupsxsXY-15" vertex="1">
          <mxGeometry width="124" height="40" as="geometry">
            <mxRectangle width="124" height="40" as="alternateBounds" />
          </mxGeometry>
        </mxCell>
        <mxCell id="RQwWFXOWMszVGupsxsXY-17" value="String" style="shape=partialRectangle;html=1;whiteSpace=wrap;connectable=0;overflow=hidden;fillColor=none;top=0;left=0;bottom=0;right=0;pointerEvents=1;rounded=1;fontFamily=Montserrat;fontSource=https%3A%2F%2Ffonts.googleapis.com%2Fcss%3Ffamily%3DMontserrat;fontSize=14;fontColor=#FFFFFF;" parent="RQwWFXOWMszVGupsxsXY-15" vertex="1">
          <mxGeometry x="124" width="76" height="40" as="geometry">
            <mxRectangle width="76" height="40" as="alternateBounds" />
          </mxGeometry>
        </mxCell>
        <mxCell id="RQwWFXOWMszVGupsxsXY-18" value="" style="shape=tableRow;horizontal=0;startSize=0;swimlaneHead=0;swimlaneBody=0;top=0;left=0;bottom=0;right=0;collapsible=0;dropTarget=0;fillColor=none;points=[[0,0.5],[1,0.5]];portConstraint=eastwest;rounded=1;fontFamily=Montserrat;fontSource=https%3A%2F%2Ffonts.googleapis.com%2Fcss%3Ffamily%3DMontserrat;fontSize=14;fontColor=#FFFFFF;" parent="RQwWFXOWMszVGupsxsXY-14" vertex="1">
          <mxGeometry y="70" width="200" height="40" as="geometry" />
        </mxCell>
        <mxCell id="RQwWFXOWMszVGupsxsXY-19" value="Password" style="shape=partialRectangle;html=1;whiteSpace=wrap;connectable=0;overflow=hidden;fillColor=none;top=0;left=0;bottom=0;right=0;pointerEvents=1;rounded=1;fontFamily=Montserrat;fontSource=https%3A%2F%2Ffonts.googleapis.com%2Fcss%3Ffamily%3DMontserrat;fontSize=14;fontColor=#FFFFFF;" parent="RQwWFXOWMszVGupsxsXY-18" vertex="1">
          <mxGeometry width="124" height="40" as="geometry">
            <mxRectangle width="124" height="40" as="alternateBounds" />
          </mxGeometry>
        </mxCell>
        <mxCell id="RQwWFXOWMszVGupsxsXY-20" value="String" style="shape=partialRectangle;html=1;whiteSpace=wrap;connectable=0;overflow=hidden;fillColor=none;top=0;left=0;bottom=0;right=0;pointerEvents=1;rounded=1;fontFamily=Montserrat;fontSource=https%3A%2F%2Ffonts.googleapis.com%2Fcss%3Ffamily%3DMontserrat;fontSize=14;fontColor=#FFFFFF;" parent="RQwWFXOWMszVGupsxsXY-18" vertex="1">
          <mxGeometry x="124" width="76" height="40" as="geometry">
            <mxRectangle width="76" height="40" as="alternateBounds" />
          </mxGeometry>
        </mxCell>
        <mxCell id="RQwWFXOWMszVGupsxsXY-22" value="&lt;p style=&quot;line-height: 140%;&quot;&gt;check details from authentication database&lt;/p&gt;" style="text;strokeColor=none;align=left;fillColor=none;html=1;verticalAlign=middle;whiteSpace=wrap;rounded=0;fontFamily=Montserrat;fontSource=https%3A%2F%2Ffonts.googleapis.com%2Fcss%3Ffamily%3DMontserrat;fontSize=14;fontColor=#FFFFFF;fontStyle=2" parent="1" vertex="1">
          <mxGeometry x="760" y="290" width="180" height="30" as="geometry" />
        </mxCell>
        <mxCell id="RQwWFXOWMszVGupsxsXY-27" value="&lt;p style=&quot;line-height: 140%;&quot;&gt;create and send JWT&amp;nbsp; to client for correct details&lt;/p&gt;" style="text;strokeColor=none;align=left;fillColor=none;html=1;verticalAlign=middle;whiteSpace=wrap;rounded=0;fontFamily=Montserrat;fontSource=https%3A%2F%2Ffonts.googleapis.com%2Fcss%3Ffamily%3DMontserrat;fontSize=14;fontColor=#FFFFFF;fontStyle=2" parent="1" vertex="1">
          <mxGeometry x="835" y="390" width="180" height="40" as="geometry" />
        </mxCell>
      </root>
    </mxGraphModel>
  </diagram>
</mxfile>
